# xmcd
#
# Track frame offsets: 
#        150
#        19310
#        35406
#        52200
#        67172
#        83711
#        99767
#        118480
#        136451
#        153155
#        171923
#        186186
#        200800
#
# Disc length: 3513 seconds
#
# Revision: 0
# Processed by: cddbd v1.4PL0 Copyright (c) Steve Scherf et al.
# Submitted via: ExactAudioCopy v0.90b4
#
DISCID=be0db70d
DTITLE=Normunds Rutulis un Ance Krauze - Lecam pa vecam lecam pa jauna
DTITLE=m
DYEAR=2003
DGENRE=
TTITLE0=Es Tevi gaidisu
TTITLE1=2006
TTITLE2=Calus skaita rudeni
TTITLE3=Laika vecis
TTITLE4=Atminas par labiem laikiem
TTITLE5=Elizabete
TTITLE6=Ta jau tas notiek
TTITLE7=Uz tava pleca
TTITLE8=Lecam pa vecam
TTITLE9=Tik vien es ludzu
TTITLE10=Ka var zinat to
TTITLE11=Dakteris Zhanis
TTITLE12=Lecam Non Stop
EXTD=
EXTT0=
EXTT1=
EXTT2=
EXTT3=
EXTT4=
EXTT5=
EXTT6=
EXTT7=
EXTT8=
EXTT9=
EXTT10=
EXTT11=
EXTT12=
PLAYORDER=
